<?xml version="1.0" encoding="utf-8"?>
<!-- Generator: Adobe Illustrator 16.0.0, SVG Export Plug-In . SVG Version: 6.00 Build 0)  -->
<!DOCTYPE svg PUBLIC "-//W3C//DTD SVG 1.1//EN" "http://www.w3.org/Graphics/SVG/1.1/DTD/svg11.dtd">
<svg version="1.1" id="Layer_1" xmlns="http://www.w3.org/2000/svg" xmlns:xlink="http://www.w3.org/1999/xlink" x="0px" y="0px"
	 width="86.858px" height="79.87px" viewBox="29.718 26.062 86.858 79.87" enable-background="new 29.718 26.062 86.858 79.87"
	 xml:space="preserve">
<g>
	<path fill="#004785" d="M54.899,57.26c-0.122,8.856,2.738,16.989,8.443,24.692l-7.195,6.856
		c-9.683-9.661-15.85-19.868-18.497-30.901c2.37,1.269,5.078,1.99,7.955,1.99C49.032,59.897,52.238,59.016,54.899,57.26
		L54.899,57.26z M83.371,97.586c-2.697,2.129-5.577,4.234-8.64,6.318c-3.075-2.094-5.944-4.193-8.636-6.318
		c-2.763-2.178-5.335-4.387-7.716-6.619l6.903-6.598c2.673,3.211,5.721,6.171,9.452,9.185
		c16.211-12.997,22.513-27.917,19.035-44.831H74.766H61.551c0.637-1.776,0.912-3.69,0.912-5.685c0-2.853-0.71-5.541-1.961-7.898
		h14.18h37.817C116.324,59.138,106.617,79.247,83.371,97.586L83.371,97.586z"/>
	<path fill="#9FB4D3" d="M31.672,43.039c0-7.694,6.238-13.932,13.933-13.932c7.693,0,13.931,6.238,13.931,13.932
		s-6.238,13.932-13.931,13.932C37.91,56.971,31.672,50.733,31.672,43.039L31.672,43.039z"/>
</g>
</svg>
